<?xml version="1.0" standalone="no"?><!DOCTYPE svg PUBLIC "-//W3C//DTD SVG 1.1//EN" "http://www.w3.org/Graphics/SVG/1.1/DTD/svg11.dtd"><svg t="1534648500027" class="icon" style="" viewBox="0 0 1024 1024" version="1.1" xmlns="http://www.w3.org/2000/svg" p-id="3803" xmlns:xlink="http://www.w3.org/1999/xlink" width="16" height="16"><defs><style type="text/css"></style></defs><path d="M512 338.286c-90.89 0-164.571 73.681-164.571 164.571S421.11 667.429 512 667.429s164.571-73.681 164.571-164.571S602.89 338.286 512 338.286z m0 274.285c-60.497 0-109.714-49.218-109.714-109.714S451.503 393.143 512 393.143c60.496 0 109.714 49.218 109.714 109.714S572.496 612.571 512 612.571z" p-id="3804" fill="#1296DB"></path><path d="M972.318 485.776c-2.09-2.625-52.095-65.004-133.169-128.005-47.884-37.209-96.757-66.917-145.264-88.297-61.572-27.141-122.768-40.903-181.885-40.903-59.118 0-120.313 13.761-181.886 40.902-48.507 21.38-97.38 51.088-145.263 88.297-81.074 63.001-131.08 125.38-133.168 128.005l-13.596 17.081 13.596 17.082c2.089 2.624 52.094 65.004 133.168 128.005 47.883 37.209 96.756 66.917 145.263 88.298 61.573 27.14 122.768 40.901 181.886 40.901 59.117 0 120.313-13.762 181.886-40.901 48.507-21.381 97.38-51.089 145.264-88.298 81.074-63.001 131.079-125.381 133.169-128.005l13.596-17.082-13.597-17.08z m-166.83 118.851c-44.337 34.455-89.33 61.847-133.729 81.417-54.558 24.048-108.309 36.241-159.76 36.241-51.244 0-104.773-12.096-159.102-35.952-44.269-19.438-89.142-46.663-133.372-80.919-51.641-39.995-90.448-80.459-110.243-102.57 19.611-21.924 57.926-61.891 109.229-101.758 44.338-34.454 89.331-61.847 133.729-81.417 54.558-24.048 108.309-36.241 159.76-36.241 51.243 0 104.773 12.096 159.103 35.952 44.269 19.439 89.142 46.664 133.372 80.919 51.642 39.995 90.447 80.459 110.243 102.57-19.612 21.925-57.927 61.892-109.23 101.758z" p-id="3805" fill="#1296DB"></path></svg>