<?xml version="1.0" standalone="no"?><!DOCTYPE svg PUBLIC "-//W3C//DTD SVG 1.1//EN" "http://www.w3.org/Graphics/SVG/1.1/DTD/svg11.dtd"><svg t="1534639588263" class="icon" style="" viewBox="0 0 1024 1024" version="1.1" xmlns="http://www.w3.org/2000/svg" p-id="2402" xmlns:xlink="http://www.w3.org/1999/xlink" width="16" height="16"><defs><style type="text/css"></style></defs><path d="M198.4 192C281.6 108.8 396.8 64 512 64c249.6 0 448 204.8 448 448s-198.4 448-448 448-448-198.4-448-448c0-25.6 19.2-44.8 44.8-44.8s44.8 19.2 44.8 44.8c0 198.4 160 358.4 358.4 358.4s358.4-160 358.4-358.4S710.4 153.6 512 153.6c-89.6 0-172.8 32-236.8 89.6h57.6c25.6 0 44.8 19.2 44.8 44.8s-19.2 44.8-44.8 44.8H153.6c-25.6 0-44.8-19.2-44.8-44.8V108.8c0-25.6 19.2-44.8 44.8-44.8s44.8 19.2 44.8 44.8V192z m288 358.4c-12.8-6.4-19.2-19.2-19.2-38.4V288c0-25.6 19.2-44.8 44.8-44.8s44.8 19.2 44.8 44.8v204.8l121.6 121.6c19.2 19.2 19.2 44.8 0 64-6.4 6.4-19.2 12.8-32 12.8s-25.6-6.4-32-12.8l-128-128z" p-id="2403" fill="#1296DB"></path></svg>