<?xml version="1.0" standalone="no"?><!DOCTYPE svg PUBLIC "-//W3C//DTD SVG 1.1//EN" "http://www.w3.org/Graphics/SVG/1.1/DTD/svg11.dtd"><svg class="icon" width="16px" height="16.00px" viewBox="0 0 1024 1024" version="1.1" xmlns="http://www.w3.org/2000/svg"><path fill="#000000" d="M110.110118 780.288c-6.545569 0-13.131294-2.128314-18.632784-6.465255-13.05098-10.320314-15.259608-29.274353-4.979451-42.325333l191.708863-242.908863c7.388863-9.316392 19.435922-13.412392 31.041255-10.521098l187.693176 47.706353L587.093333 348.963137c3.734588-7.348706 10.360471-12.850196 18.271373-15.179294l299.971765-88.786824c16.022588-4.698353 32.727843 4.377098 37.426196 20.319373 4.73851 15.942275-4.336941 32.687686-20.319373 37.426196l-287.563294 85.132549-95.171765 186.689255c-6.344784 12.569098-20.560314 18.994196-34.253804 15.540706l-192.070275-48.830745-179.621647 227.568941C127.819294 776.352627 118.984784 780.288 110.110118 780.288z" /></svg>