<svg id="图层_1" data-name="图层 1" xmlns="http://www.w3.org/2000/svg" viewBox="0 0 14 12.48"><defs><style>.cls-1{fill:#040000;}</style></defs><title>线测</title><polygon class="cls-1" points="3.1 2.73 2.1 4.46 2.97 4.96 3.97 3.23 3.1 2.73 3.1 2.73"/><polygon class="cls-1" points="4.83 3.73 3.83 5.46 4.7 5.96 5.7 4.23 4.83 3.73 4.83 3.73"/><polygon class="cls-1" points="6.57 4.73 5.57 6.46 6.43 6.96 7.43 5.23 6.57 4.73 6.57 4.73"/><polygon class="cls-1" points="8.3 5.73 7.3 7.46 8.16 7.96 9.16 6.23 8.3 5.73 8.3 5.73"/><polygon class="cls-1" points="10.03 6.73 9.03 8.46 9.9 8.96 10.9 7.23 10.03 6.73 10.03 6.73"/><polygon class="cls-1" points="12.76 6 10.76 9.46 11.63 9.96 13.63 6.5 12.76 6 12.76 6"/><polygon class="cls-1" points="0.87 2.6 0.37 3.46 11.63 9.96 12.13 9.1 0.87 2.6 0.87 2.6"/><polygon class="cls-1" points="2.37 0 1.87 0.87 13.13 7.37 13.63 6.5 2.37 0 2.37 0"/><polygon class="cls-1" points="2.37 0 0.37 3.46 1.24 3.96 3.24 0.5 2.37 0 2.37 0"/><polygon class="cls-1" points="14 10.48 0 10.48 0 11.48 14 11.48 14 10.48 14 10.48"/><polygon class="cls-1" points="1 9.48 0 9.48 0 12.48 1 12.48 1 9.48 1 9.48"/><polygon class="cls-1" points="14 9.48 13 9.48 13 12.48 14 12.48 14 9.48 14 9.48"/></svg>