<svg id="图层_1" data-name="图层 1" xmlns="http://www.w3.org/2000/svg" viewBox="0 0 14 14"><defs><style>.cls-1{fill:none;stroke:#000;stroke-miterlimit:10;}</style></defs><title>面测</title><path d="M1066,156v8h-8v-8h8m1-1h-10v10h10V155Z" transform="translate(-1054 -154)"/><polygon points="5 13 4 13 4 14 5 14 5 13 5 13"/><polygon points="9 13 8 13 8 14 9 14 9 13 9 13"/><polygon points="13 13 12 13 12 14 13 14 13 13 13 13"/><polygon points="1 1 0 1 0 2 1 2 1 1 1 1"/><polygon points="1 5 0 5 0 6 1 6 1 5 1 5"/><polygon points="1 9 0 9 0 10 1 10 1 9 1 9"/><polygon points="14 12 1 12 1 13 14 13 14 12 14 12"/><polygon points="2 0 1 0 1 12 2 12 2 0 2 0"/><line class="cls-1" x1="12.5" y1="1.5" x2="3.5" y2="10.5"/><line class="cls-1" x1="8.5" y1="1.5" x2="3.5" y2="6.5"/><line class="cls-1" x1="12.5" y1="5.5" x2="7.5" y2="10.5"/></svg>