<svg id="图层_1" data-name="图层 1" xmlns="http://www.w3.org/2000/svg" viewBox="0 0 12 14"><title>点查询2</title><circle cx="6" cy="6" r="0.5"/><path d="M1151,141a1,1,0,1,0,1,1,1,1,0,0,0-1-1Z" transform="translate(-1145 -136)"/><path d="M1153.35,146.47a27.43,27.43,0,0,1-2.35,2.24c-2.15-1.81-5-4.84-5-6.71a5,5,0,0,1,10,0,4.31,4.31,0,0,1-.78,2.1l.72.72A5.52,5.52,0,0,0,1157,142a6,6,0,0,0-12,0c0,3.31,6,8,6,8a30.65,30.65,0,0,0,3.06-2.82Z" transform="translate(-1145 -136)"/><rect x="1154.38" y="143.6" width="1" height="4.57" rx="0.5" ry="0.5" transform="translate(-909.9 723.35) rotate(-45)"/><path d="M1151,139a3,3,0,1,1-3,3,3,3,0,0,1,3-3m0-1a4,4,0,1,0,4,4,4,4,0,0,0-4-4Z" transform="translate(-1145 -136)"/></svg>