<?xml version="1.0" standalone="no"?><!DOCTYPE svg PUBLIC "-//W3C//DTD SVG 1.1//EN" "http://www.w3.org/Graphics/SVG/1.1/DTD/svg11.dtd"><svg class="icon" width="32px" height="32.00px" viewBox="0 0 1024 1024" version="1.1" xmlns="http://www.w3.org/2000/svg"><path fill="#919191" d="M353.672 21.521c-154.199 0-278.823 124.813-278.823 278.594 0 50.794 13.684 98.309 37.532 139.516L353.673 998.49l241.083-558.858c23.663-41.208 37.322-88.723 37.322-139.517 0-153.781-124.207-278.594-278.406-278.594z m0.001 791.776L221.508 545.689c39.349 21.22 84.445 33.041 132.164 33.041 47.728 0 92.795-11.821 131.559-33.041L353.673 813.297z m169.146-495.222c0 9.013-7.57 16.952-17.652 16.952H391.571v120.429c0 9.38-7.941 16.619-16.945 16.619h-35.348c-9.38 0-17.32-7.239-17.32-16.619V335.027H207.623c-8.643 0-16.582-7.941-16.582-16.952v-35.711c0-9.011 7.941-16.582 16.582-16.582h114.336V157.577c0-9.38 7.939-16.952 17.32-16.952h35.348c9.005 0 16.945 7.571 16.945 16.952v108.205h113.597c10.081 0 17.652 7.571 17.652 16.582v35.711zM904.156 562.836c-70.761-70.385-184.587-70.385-254.742 0-23.058 23.037-38.739 50.982-46.304 80.765l-144.8 365.081 364.872-145.218c29.386-7.749 57.519-23.037 80.974-46.512 69.549-70.155 69.549-183.961 0-254.116zM542.124 924.032l62.218-182.123c7.957 27.318 23.25 53.426 45.071 75.042 21.829 21.826 47.936 36.717 75.46 45.28l-182.749 61.801z m303.831-182.16l-12.926 12.713c-3.262 3.208-8.831 3.295-12.42-0.354l-40.44-41.118-43.591 42.873c-3.395 3.339-8.843 3.042-12.048-0.217l-12.584-12.795c-3.339-3.395-3.546-8.846-0.15-12.186l43.591-42.873-40.704-41.385c-3.077-3.128-3.029-8.829 0.233-12.037l12.926-12.713c3.262-3.208 8.829-3.029 11.905 0.099l40.704 41.385 39.166-38.521c3.395-3.339 8.962-3.161 12.302 0.234l12.584 12.795c3.206 3.26 3.292 8.829-0.104 12.168l-39.166 38.521 40.44 41.118c3.589 3.649 3.543 9.085 0.282 12.293z" /></svg>