<svg id="图层_1" data-name="图层 1" xmlns="http://www.w3.org/2000/svg" viewBox="0 0 13.66 13.84"><title>多边形查询2</title><polygon points="7 12.65 4.37 12.65 1.08 8.53 2.25 3.4 7 1.11 11.75 3.4 12.58 7.06 13.61 7.06 12.61 2.7 7 0 1.39 2.7 0 8.78 3.88 13.65 7 13.65 7 12.65"/><path d="M1117.41,143a2.5,2.5,0,1,1-2.5,2.5,2.5,2.5,0,0,1,2.5-2.5m0-1a3.5,3.5,0,1,0,3.5,3.5,3.5,3.5,0,0,0-3.5-3.5Z" transform="translate(-1108 -135.94)"/><path d="M1119.53,147.16a.5.5,0,0,0-.35.85l1.63,1.63a.5.5,0,1,0,.71-.71l-1.63-1.63a.5.5,0,0,0-.35-.15Z" transform="translate(-1108 -135.94)"/></svg>