<svg id="图层_1" data-name="图层 1" xmlns="http://www.w3.org/2000/svg" viewBox="0 0 14 12.78"><title>拉框查询2</title><rect y="4" width="1" height="2"/><polygon points="1 1 2 1 2 0 0 0 0 1 0 3 1 3 1 1"/><rect y="7" width="1" height="2"/><rect x="6" width="2" height="1"/><rect x="9" width="2" height="1"/><rect x="12" width="2" height="1"/><rect x="13" y="2" width="1" height="2"/><rect x="13" y="5" width="1" height="1"/><rect x="4" y="11" width="2" height="1"/><polygon points="1 10 0 10 0 12 1 12 3 12 3 11 1 11 1 10"/><rect x="3" width="2" height="1"/><path d="M1135.41,143a2.5,2.5,0,1,1-2.5,2.5,2.5,2.5,0,0,1,2.5-2.5m0-1a3.5,3.5,0,1,0,3.5,3.5,3.5,3.5,0,0,0-3.5-3.5Z" transform="translate(-1126 -137)"/><path d="M1137.53,147.16a.5.5,0,0,0-.35.85l1.63,1.63a.5.5,0,1,0,.71-.71l-1.63-1.63a.5.5,0,0,0-.35-.15Z" transform="translate(-1126 -137)"/><polygon points="4 2 2 2 2 3 2 3 2 4 3 4 3 4 3 4 3 4 3 4 3 4 3 3 3 3 3 4 4 4 4 2 4 2"/></svg>