<?xml version="1.0" standalone="no"?><!DOCTYPE svg PUBLIC "-//W3C//DTD SVG 1.1//EN" "http://www.w3.org/Graphics/SVG/1.1/DTD/svg11.dtd"><svg t="1534648532153" class="icon" style="" viewBox="0 0 1024 1024" version="1.1" xmlns="http://www.w3.org/2000/svg" p-id="4697" xmlns:xlink="http://www.w3.org/1999/xlink" width="16" height="16"><defs><style type="text/css"></style></defs><path d="M904.9 794.9L757.4 647.4c-18.5-18.5-46.8-21.9-68.7-10.1l-27.8-27.8c42.6-53.1 67.9-120.5 67.9-193.9 0-173.2-140.4-313.6-313.2-313.6C242.4 102 102 242.4 102 415.6c0 172.8 140.4 313.2 313.6 313.2 73.3 0 140.8-25.3 193.9-67.9l27.8 27.8c-11.8 21.9-8.4 50.2 10.1 68.7l147.5 147.5c22.8 22.8 59.9 22.8 82.6 0l27.4-27.4c22.8-22.7 22.8-59.8 0-82.6zM160.2 415.6c0-141.2 114.2-255.4 255.4-255.4 140.8 0 255.4 114.2 255.4 255.4s-114.6 255-255.4 255c-141.2 0-255.4-114.2-255.4-255z m319.5 155c-125 0-226.3-101.3-226.3-226.3 0-3.3 0.3-6.6 0.5-9.9-16.5 26.7-26.2 58.1-26.2 91.8 0 96.6 78.4 175 175 175 37.3 0 71.8-11.8 100.2-31.7-7.6 0.7-15.4 1.1-23.2 1.1z" p-id="4698" fill="#1296DB"></path></svg>