<?xml version="1.0" standalone="no"?><!DOCTYPE svg PUBLIC "-//W3C//DTD SVG 1.1//EN" "http://www.w3.org/Graphics/SVG/1.1/DTD/svg11.dtd"><svg class="icon" width="48px" height="48.00px" viewBox="0 0 1024 1024" version="1.1" xmlns="http://www.w3.org/2000/svg"><path d="M900.8 895.6H126.1c-21.8 0-59.3-36.8-59.3-57.7V243.1c0-20.8 17.6-37.7 39.3-37.7h814.8c21.8 0 39.3 16.8 39.3 37.7V838c0 20.7-37.7 57.6-59.4 57.6z m0 0" fill="#FFA000" /><path d="M559.5 367.3H66.7V175.4c0-20.8 17.6-37.7 39.3-37.7h351.7c17.4 0 32.7 10.8 37.7 26.8l64.1 202.8z m-46 0" fill="#FFA000" /><path d="M858.9 848.9H168c-21.8 0-39.3-16.8-39.3-37.7V300.6c0-20.8 17.6-37.7 39.3-37.7h691c21.8 0 39.3 16.8 39.3 37.7v510.6c0.1 20.7-17.6 37.7-39.4 37.7z m0 0" fill="#FFFFFF" /><path d="M900.8 895.6H126.1c-21.8 0-59.3-20.3-59.3-57.7V371.3c0-20.8 17.6-37.7 39.3-37.7h814.8c21.8 0 39.3 16.8 39.3 37.7V838c0 46-37.7 57.6-59.4 57.6z m0 0" fill="#FFCA28" /><path d="M719.8 895.6L404.8 467l-254 10.9 96.9 123.7-96.9 4.2 226.7 289.6 342.3 0.2z" fill="#FFB806" /><path d="M385.1 489.2H168.8c-10.8 0-19.7-8.5-19.7-18.8 0-10.4 8.8-18.8 19.7-18.8h216.3c10.8 0 19.7 8.5 19.7 18.8 0 10.4-8.9 18.8-19.7 18.8z m0 127.9H168.8c-10.8 0-19.7-8.5-19.7-18.8 0-10.4 8.8-18.8 19.7-18.8h216.3c10.8 0 19.7 8.5 19.7 18.8 0 10.4-8.9 18.8-19.7 18.8z m0 0" fill="#FFF8E1" /></svg>