<svg id="图层_1" data-name="图层 1" xmlns="http://www.w3.org/2000/svg" viewBox="0 0 14 13.86"><defs><style>.cls-1{fill:none;stroke:#000;stroke-miterlimit:10;}</style></defs><title>DEM</title><path d="M12.82,70a1.18,1.18,0,1,1-1.18,1.18A1.18,1.18,0,0,1,12.82,70m0-1A2.18,2.18,0,1,0,15,71.18,2.18,2.18,0,0,0,12.82,69Z" transform="translate(-1 -69)"/><path class="cls-1" d="M6.73,69.44S5.79,75.5,14.5,75.5" transform="translate(-1 -69)"/><path class="cls-1" d="M1.5,69.5s-.06,7.26,13,9" transform="translate(-1 -69)"/><path class="cls-1" d="M1.5,77.5s5,0,10,5" transform="translate(-1 -69)"/><path class="cls-1" d="M1.5,80.5s3.9,0,6,2" transform="translate(-1 -69)"/></svg>