<svg id="图层_1" data-name="图层 1" xmlns="http://www.w3.org/2000/svg" viewBox="0 0 13 13"><title>DOM</title><path d="M31,3V4H20V3H31m1-1H19V5H32V2Z" transform="translate(-19 -2)"/><path d="M21,11v3H20V11h1m1-1H19v5h3V10Z" transform="translate(-19 -2)"/><path d="M26,11v3H25V11h1m1-1H24v5h3V10Z" transform="translate(-19 -2)"/><path d="M31,11v3H30V11h1m1-1H29v5h3V10Z" transform="translate(-19 -2)"/><polygon points="7 2 6 2 6 6 7 6 7 2 7 2"/><polygon points="2 5 1 5 1 9 2 9 2 5 2 5"/><polygon points="7 5 6 5 6 9 7 9 7 5 7 5"/><polygon points="12 5 11 5 11 9 12 9 12 5 12 5"/><polygon points="12 5 1 5 1 6 12 6 12 5 12 5"/></svg>