<svg id="图层_1" data-name="图层 1" xmlns="http://www.w3.org/2000/svg" viewBox="0 0 14 14"><title>DRG</title><path d="M42,70.08l4.08,1.67.37.15.38-.15L50,70.48v9.9l-3.08,1.54-.61-.2-4.45-1.48-.35-.12-.34.14L38,81.52V71.68l3.37-1.35.62-.25M51,69l-4.55,1.82L42,69l-1,.4L37,71V83l4.55-1.82L46,82.67,47,83l4-2V69Z" transform="translate(-37 -69)"/><polygon points="7 1 6 1 6 5 7 5 7 1 7 1"/><polygon points="13 5 0 5 0 6 13 6 13 5 13 5"/><polygon points="5 6 4 6 4 12 5 12 5 6 5 6"/><polygon points="10 6 9 6 9 9 10 9 10 6 10 6"/><polygon points="13 9 5 9 5 10 13 10 13 9 13 9"/></svg>