<svg id="图层_1" data-name="图层 1" xmlns="http://www.w3.org/2000/svg" viewBox="0 0 14 14"><defs><style>.cls-1{fill:none;stroke:#000;stroke-miterlimit:10;}</style></defs><title>面</title><path d="M93,70v1H92V70h1m1-1H91v3h3V69Z" transform="translate(-91 -69)"/><path d="M93,81v1H92V81h1m1-1H91v3h3V80Z" transform="translate(-91 -69)"/><path d="M104,81v1h-1V81h1m1-1h-3v3h3V80Z" transform="translate(-91 -69)"/><path d="M104,70v1h-1V70h1m1-1h-3v3h3V69Z" transform="translate(-91 -69)"/><polygon points="11 1 3 1 3 2 11 2 11 1 11 1"/><polygon points="11 12 3 12 3 13 11 13 11 12 11 12"/><polygon points="2 3 1 3 1 11 2 11 2 3 2 3"/><polygon points="13 3 12 3 12 11 13 11 13 3 13 3"/><line class="cls-1" x1="11.5" y1="2.5" x2="2.5" y2="11.5"/><line class="cls-1" x1="7.5" y1="1.5" x2="1.5" y2="7.5"/><line class="cls-1" x1="12.5" y1="6.5" x2="6.5" y2="12.5"/></svg>