<?xml version="1.0" encoding="utf-8"?>
<!-- Generator: Adobe Illustrator 21.1.0, SVG Export Plug-In . SVG Version: 6.00 Build 0)  -->
<svg version="1.1" id="图层_1" xmlns="http://www.w3.org/2000/svg" xmlns:xlink="http://www.w3.org/1999/xlink" x="0px" y="0px"
	 viewBox="0 0 32 32" style="enable-background:new 0 0 32 32;" xml:space="preserve">
<style type="text/css">
	.st0{display:none;fill:#CCCCCC;}
	.st1{display:none;}
	.st2{display:inline;fill:#FFFFFF;}
	.st3{display:inline;}
	.st4{display:none;fill:#FFFFFF;}
	.st5{fill:#FFFFFF;}
	.st6{display:inline;fill:none;stroke:#000000;stroke-width:3;stroke-linecap:round;stroke-miterlimit:10;}
</style>
<rect x="35" class="st0" width="32" height="32"/>
<path class="st1" d="M-304.7-85l2.8-2.7c0.6,0.3,1.3,0.4,2,0.4c1.3,0,2.5-0.5,3.4-1.4l18.1-17.5c0.9-0.9,1.4-2,1.4-3.3
	c0-1.2-0.5-2.4-1.4-3.3c-1.9-1.8-4.9-1.8-6.8,0l-18.1,17.5c-1.6,1.6-1.9,4.1-0.5,5.9l-3.2,3.1L-304.7-85L-304.7-85z M-301.6-90.3
	c-0.5-0.5-0.8-1.2-0.8-1.9c0.2-0.7,0.6-1.3,1.2-1.8l3.4,3.3C-298.8-89.5-300.4-89.4-301.6-90.3L-301.6-90.3z M-285.1-109.6
	c0,0,2.7-2.9,4.6-1.1c1.7,1.7-1.2,4.5-1.2,4.5l-13.8,13.4l-3.5-3.3L-285.1-109.6L-285.1-109.6z"/>
<g class="st1">
	<path class="st2" d="M51.6,28.6"/>
	<polygon class="st3" points="45.3,16.9 58.5,3.9 63.2,8.5 50,21.5 	"/>
	<polygon class="st3" points="42.8,24 48.9,22.3 44.5,18 	"/>
	<path class="st3" d="M64,0.5C63.7,0.2,63.3,0,62.9,0c-0.5,0-1,0.2-1.3,0.6l-2.4,2.3L64,7.5l2.4-2.3C66.7,5,67,4.6,67,4.1
		c0-0.4-0.1-0.9-0.4-1.2L64,0.5z"/>
	<ellipse class="st3" cx="38" cy="29" rx="3" ry="3"/>
</g>
<rect x="-232" class="st4" width="32" height="32"/>
<path class="st4" d="M-215.4,28.6"/>
<polygon class="st1" points="-228.7,22.3 -211.2,5.1 -205,11.1 -222.5,28.4 "/>
<polygon class="st1" points="-232,31.8 -223.9,29.5 -229.7,23.8 "/>
<path class="st1" d="M-203.9,0.5c-0.4-0.4-0.9-0.6-1.4-0.6c-0.7,0-1.3,0.3-1.7,0.8l-3.1,3.1l6.2,6.1l3.1-3.1
	c0.5-0.4,0.8-0.9,0.8-1.5c0-0.6-0.2-1.2-0.6-1.6L-203.9,0.5z"/>
<circle class="st1" cx="-206" cy="26" r="4"/>
<rect x="-232" y="39" class="st4" width="32" height="32"/>
<path class="st4" d="M-215.4,67.6"/>
<polygon class="st1" points="-228.7,61.3 -211.2,44.1 -205,50.1 -222.5,67.4 "/>
<polygon class="st1" points="-232,70.8 -223.9,68.5 -229.7,62.8 "/>
<path class="st1" d="M-203.9,39.5c-0.4-0.4-0.9-0.6-1.4-0.6c-0.7,0-1.3,0.3-1.7,0.8l-3.1,3.1l6.2,6.1l3.1-3.1
	c0.5-0.4,0.8-0.9,0.8-1.5c0-0.6-0.2-1.2-0.6-1.6L-203.9,39.5z"/>
<rect x="70" class="st0" width="32" height="32"/>
<g class="st1">
	<path class="st2" d="M86.6,28.6"/>
	<polygon class="st3" points="80.3,16.9 93.5,3.9 98.2,8.5 85,21.5 	"/>
	<polygon class="st3" points="77.8,24 83.9,22.3 79.5,18 	"/>
	<path class="st3" d="M99,0.5C98.7,0.2,98.3,0,97.9,0c-0.5,0-1,0.2-1.3,0.6l-2.4,2.3L99,7.5l2.4-2.3c0.4-0.3,0.6-0.7,0.6-1.1
		c0-0.4-0.1-0.9-0.4-1.2L99,0.5z"/>
	<path class="st3" d="M100.5,32h-29c-0.8,0-1.5-0.7-1.5-1.5v0c0-0.8,0.7-1.5,1.5-1.5h29c0.8,0,1.5,0.7,1.5,1.5v0
		C102,31.3,101.3,32,100.5,32z"/>
</g>
<rect x="105" class="st0" width="32" height="32"/>
<path class="st1" d="M-203.1,69h-11.7c-0.6,0-1.1-0.5-1.1-1.1v-1.7c0-0.6,0.5-1.1,1.1-1.1h11.7c0.6,0,1.1,0.5,1.1,1.1v1.7
	C-202,68.5-202.5,69-203.1,69z"/>
<rect x="-269" y="47.1" class="st4" width="23.9" height="23.9"/>
<path class="st4" d="M-256.6,68.5"/>
<polygon class="st1" points="-266.5,63.7 -253.4,50.9 -248.8,55.4 -261.9,68.3 "/>
<polygon class="st1" points="-269,70.8 -262.9,69.1 -267.3,64.9 "/>
<path class="st1" d="M-248,47.5c-0.3-0.3-0.7-0.5-1.1-0.5c-0.5,0-0.9,0.2-1.2,0.6l-2.3,2.3l4.7,4.6l2.3-2.3c0.4-0.3,0.6-0.7,0.6-1.1
	c0-0.4-0.1-0.9-0.4-1.2L-248,47.5z"/>
<path class="st1" d="M-247.7,69h-8.7c-0.4,0-0.7-0.3-0.7-0.7v-0.6c0-0.4,0.3-0.7,0.7-0.7h8.7c0.4,0,0.7,0.3,0.7,0.7v0.6
	C-247,68.7-247.3,69-247.7,69z"/>
<rect x="-301" y="55" class="st4" width="16" height="16"/>
<path class="st4" d="M-292.7,69.3"/>
<polygon class="st1" points="-299.3,66.1 -290.6,57.5 -287.5,60.6 -296.3,69.2 "/>
<polygon class="st1" points="-301,70.9 -296.9,69.8 -299.9,66.9 "/>
<path class="st1" d="M-287,55.3c-0.2-0.2-0.4-0.3-0.7-0.3c-0.3,0-0.6,0.2-0.8,0.4l-1.6,1.5l3.1,3.1l1.6-1.5c0.2-0.2,0.4-0.4,0.4-0.7
	c0-0.3-0.1-0.6-0.3-0.8L-287,55.3z"/>
<path class="st1" d="M-286.4,70h-6.2c-0.2,0-0.4-0.2-0.4-0.4v-0.2c0-0.2,0.2-0.4,0.4-0.4h6.2c0.2,0,0.4,0.2,0.4,0.4v0.2
	C-286,69.8-286.2,70-286.4,70z"/>
<g class="st1">
	<path class="st2" d="M121.6,28.6"/>
	<polygon class="st3" points="134,13.3 134,29 108,29 108,13.1 113.5,13.1 116.5,10.1 105,10.1 105,32 137,32 137,10.4 	"/>
	<polygon class="st3" points="115.3,16.9 128.5,3.9 133.2,8.5 120,21.5 	"/>
	<polygon class="st3" points="112.8,24 118.9,22.3 114.5,18 	"/>
	<path class="st3" d="M134,0.5c-0.3-0.3-0.7-0.5-1.1-0.5c-0.5,0-1,0.2-1.3,0.6l-2.4,2.3l4.7,4.6l2.4-2.3c0.4-0.3,0.6-0.7,0.6-1.1
		c0-0.4-0.1-0.9-0.4-1.2L134,0.5z"/>
</g>
<rect x="-35" y="0" class="st0" width="32" height="32"/>
<g class="st1">
	<path class="st2" d="M-18.4,28.6"/>
	<path class="st3" d="M-10.1,17.3c0,0.3,0,0.5,0,0.8c0,6-4.9,11-11,11s-11-4.9-11-11s4.9-11,11-11c0.2,0,0.4,0,0.6,0l2.7-2.6
		c-1-0.2-2.1-0.4-3.3-0.4c-7.7,0-14,6.2-14,14s6.3,14,14,14s14-6.2,14-14c0-1.2-0.2-2.3-0.4-3.3L-10.1,17.3z"/>
	<polygon class="st3" points="-24.7,16.9 -11.5,3.9 -6.8,8.5 -20,21.5 	"/>
	<polygon class="st3" points="-27.2,24 -21.1,22.3 -25.5,18 	"/>
	<path class="st3" d="M-6,0.5C-6.3,0.2-6.7,0-7.1,0c-0.5,0-1,0.2-1.3,0.6l-2.4,2.3L-6,7.5l2.4-2.3C-3.3,5-3,4.6-3,4.1
		c0-0.4-0.1-0.9-0.4-1.2L-6,0.5z"/>
</g>
<rect y="0" class="st0" width="32" height="32"/>
<g>
	<path class="st5" d="M16.6,28.6"/>
	<polygon points="24.7,17.5 27.8,24.8 7,28.6 3.3,18.7 8.7,7.5 13,8.6 15.6,6.1 7,4.1 0,18.5 5.1,32 32,27.1 27,15.2 	"/>
	<polygon points="10.3,16.9 23.5,3.9 28.2,8.5 15,21.5 	"/>
	<polygon points="7.8,24 13.9,22.3 9.5,18 	"/>
	<path d="M29,0.5C28.7,0.2,28.3,0,27.9,0c-0.5,0-1,0.2-1.3,0.6l-2.4,2.3L29,7.5l2.4-2.3C31.7,5,32,4.6,32,4.1c0-0.4-0.1-0.9-0.4-1.2
		L29,0.5z"/>
</g>
<rect y="201" class="st0" width="32" height="32"/>
<g class="st1">
	<path class="st2" d="M16.6,229.6"/>
	<polygon class="st3" points="10.3,217.8 23.6,204.8 28.2,209.4 15,222.4 	"/>
	<polygon class="st3" points="7.8,225 13.9,223.3 9.5,219 	"/>
	<path class="st3" d="M29,201.4c-0.3-0.3-0.7-0.5-1.1-0.5c-0.5,0-1,0.2-1.3,0.6l-2.4,2.3l4.7,4.6l2.4-2.3c0.4-0.3,0.6-0.7,0.6-1.1
		c0-0.4-0.1-0.9-0.4-1.2L29,201.4z"/>
	<polyline class="st6" points="2,224.2 12,231 20,225 30,231 	"/>
</g>
</svg>
