<?xml version="1.0" standalone="no"?><!DOCTYPE svg PUBLIC "-//W3C//DTD SVG 1.1//EN" "http://www.w3.org/Graphics/SVG/1.1/DTD/svg11.dtd"><svg class="icon" width="32px" height="32.00px" viewBox="0 0 1024 1024" version="1.1" xmlns="http://www.w3.org/2000/svg"><path fill="#5f6477" d="M169.129737 645.838015l681.051425 0 0 39.119992-681.051425 0 0-39.119992ZM266.258554 752.814548l110.648359 0 0 31.120227L311.211331 783.934775l0 25.287442 56.1067 0 0 29.242179-56.1067 0 0 59.170567-44.952777 0L266.258554 752.814548zM412.902843 752.814548l44.850447 0 0 144.826434-44.850447 0L412.902843 752.814548zM499.973266 752.814548l44.754137 0 0 109.161571 69.842939 0 0 35.664864L499.973266 897.640983 499.973266 752.814548zM644.932127 752.814548l119.930253 0 0 30.921587-75.079805 0 0 23.018133 69.6443 0 0 29.537129-69.6443 0 0 28.549949 77.252804 0 0 32.793617-122.103251 0L644.932127 752.814548zM885.01535 285.969005l-0.066213-43.556279-35.845445-44.441129 0 0.758443L692.858481 3.244449c-0.716307-0.890869-1.559021-1.46873-2.413774-2.004456l-1.023296-1.239994L204.782562 0.704268c-39.517271 0.060194-71.498271 39.944648-71.426038 89.086917l1.233974 845.332516c0.072233 49.14227 32.1676 88.936433 71.690891 88.876239l608.252967-0.890869c39.517271-0.060194 71.498271-39.944648 71.426038-89.086917l-0.945044-645.121708M687.898507 60.12765l147.360596 184.355744L723.948611 244.645918c-19.749606 0.030097-35.809329-19.882033-35.845445-44.441129L687.898507 60.12765 687.898507 60.12765zM850.181161 934.076328c0.036116 24.559096-15.963412 44.513362-35.713019 44.543459L206.215176 979.510656c-19.749606 0.030097-35.809329-19.882033-35.845445-44.441129L169.129737 89.737011c-0.036116-24.559096 15.963412-44.513362 35.713019-44.543459l447.246422-0.656113 0.228737 155.715504c0.072233 49.14227 32.1676 88.936433 71.690891 88.876239l125.227313-0.180582L850.181161 934.076328 850.181161 934.076328z" /></svg>