<?xml version="1.0" standalone="no"?><!DOCTYPE svg PUBLIC "-//W3C//DTD SVG 1.1//EN" "http://www.w3.org/Graphics/SVG/1.1/DTD/svg11.dtd"><svg t="1533955645798" class="icon" style="" viewBox="0 0 1024 1024" version="1.1" xmlns="http://www.w3.org/2000/svg" p-id="9617" xmlns:xlink="http://www.w3.org/1999/xlink" width="24" height="24"><defs><style type="text/css"></style></defs><path d="M832.821248 196.682752 185.00096 196.682752c-18.501632 0-33.478656 15.01184-33.478656 33.512448l0 558.465024c0 18.501632 14.977024 33.512448 33.478656 33.512448l647.820288 0c18.501632 0 33.512448-15.01184 33.512448-33.512448L866.333696 230.1952C866.333696 211.694592 851.32288 196.682752 832.821248 196.682752zM419.555328 235.075584c18.738176 0 33.885184 15.1808 33.885184 33.885184 0 18.738176-15.147008 33.885184-33.885184 33.885184-18.704384 0-33.885184-15.147008-33.885184-33.885184C385.670144 250.25536 400.850944 235.075584 419.555328 235.075584zM319.051776 235.075584c18.704384 0 33.885184 15.1808 33.885184 33.885184 0 18.738176-15.1808 33.885184-33.885184 33.885184-18.738176 0-33.885184-15.147008-33.885184-33.885184C285.166592 250.25536 300.312576 235.075584 319.051776 235.075584zM218.513408 235.075584c18.7392 0 33.885184 15.1808 33.885184 33.885184 0 18.738176-15.147008 33.885184-33.885184 33.885184-18.704384 0-33.885184-15.147008-33.885184-33.885184C184.628224 250.25536 199.809024 235.075584 218.513408 235.075584zM372.72576 773.378048 199.9104 773.378048 199.9104 664.030208 372.72576 664.030208 372.72576 773.378048zM372.72576 616.92928 199.9104 616.92928 199.9104 507.03872 372.72576 507.03872 372.72576 616.92928zM372.72576 459.836416 199.9104 459.836416l0-50.725888 0.033792-59.706368L372.72576 349.40416 372.72576 459.836416zM597.656576 773.378048 424.841216 773.378048 424.841216 664.030208l172.81536 0L597.656576 773.378048zM597.656576 616.92928l-26.36288 0 0-0.949248-46.117888 0 0 0.949248-100.334592 0L424.841216 507.03872l63.331328 0 0 1.152 46.117888 0 0-1.152 63.366144 0L597.656576 616.92928zM597.656576 459.836416 424.841216 459.836416 424.841216 349.40416l172.81536 0 0 17.247232-0.305152 0 0 50.015232 0.305152 0L597.656576 459.836416zM819.030016 773.378048 646.214656 773.378048 646.214656 664.030208l172.81536 0L819.030016 773.378048zM819.030016 616.92928 646.214656 616.92928 646.214656 507.03872l172.81536 0L819.030016 616.92928zM819.030016 405.383168l0 54.453248L646.214656 459.836416 646.214656 349.40416l172.81536 0 0 5.963776-0.71168 0 0 50.015232L819.030016 405.383168z" p-id="9618" fill="#007ACC"></path></svg>