<?xml version="1.0" standalone="no"?><!DOCTYPE svg PUBLIC "-//W3C//DTD SVG 1.1//EN" "http://www.w3.org/Graphics/SVG/1.1/DTD/svg11.dtd"><svg t="1533955019526" class="icon" style="" viewBox="0 0 1024 1024" version="1.1" xmlns="http://www.w3.org/2000/svg" p-id="1266" xmlns:xlink="http://www.w3.org/1999/xlink" width="24" height="24"><defs><style type="text/css"></style></defs><path d="M565.6 287.8m-74 0a74 74 0 1 0 148 0 74 74 0 1 0-148 0Z" fill="#0666D4" p-id="1267"></path><path d="M798.8 566m-74 0a74 74 0 1 0 148 0 74 74 0 1 0-148 0Z" fill="#0666D4" p-id="1268"></path><path d="M273.9 738.3m-74 0a74 74 0 1 0 148 0 74 74 0 1 0-148 0Z" fill="#0666D4" p-id="1269"></path><path d="M218.2 265.8m-74 0a74 74 0 1 0 148 0 74 74 0 1 0-148 0Z" fill="#0666D4" p-id="1270"></path><path d="M711.6 566c0-27.2 12.5-51.5 32-67.5l-120-145.6c-15.4 13.7-35.7 22.1-58 22.1-48.2 0-87.2-39-87.2-87.2 0-3.6 0.2-7.2 0.7-10.7l-173.7-10.8c-0.3 46.6-37.1 84.5-83.2 86.5l36.2 299.6c5-0.9 10.2-1.4 15.5-1.4 38 0 70.4 24.4 82.3 58.3l359.5-116.9c-2.7-8.2-4.1-17.2-4.1-26.4z" fill="#7FBCFF" p-id="1271"></path></svg>