<?xml version="1.0" standalone="no"?><!DOCTYPE svg PUBLIC "-//W3C//DTD SVG 1.1//EN" "http://www.w3.org/Graphics/SVG/1.1/DTD/svg11.dtd"><svg t="1533955093571" class="icon" style="" viewBox="0 0 1024 1024" version="1.1" xmlns="http://www.w3.org/2000/svg" p-id="7050" xmlns:xlink="http://www.w3.org/1999/xlink" width="24" height="24"><defs><style type="text/css"></style></defs><path d="M173.7 715.6m-84.2 0a84.2 84.2 0 1 0 168.4 0 84.2 84.2 0 1 0-168.4 0Z" fill="#0666D4" p-id="7051"></path><path d="M828.5 311.5m-80.8 0a80.8 80.8 0 1 0 161.6 0 80.8 80.8 0 1 0-161.6 0Z" fill="#0666D4" p-id="7052"></path><path d="M387 288.2m-79.3 0a79.3 79.3 0 1 0 158.6 0 79.3 79.3 0 1 0-158.6 0Z" fill="#0666D4" p-id="7053"></path><path d="M662.6 701.9m-86.4 0a86.4 86.4 0 1 0 172.8 0 86.4 86.4 0 1 0-172.8 0Z" fill="#0666D4" p-id="7054"></path><path d="M666.5 743.8L389.5 328 191.6 724.5l-35.8-17.8 228.7-458.3L658.7 660l157-367.3 36.8 15.8z" fill="#0666D4" p-id="7055"></path></svg>