<svg id="图层_1" data-name="图层 1" xmlns="http://www.w3.org/2000/svg" viewBox="0 0 13.96 11.48"><defs><style>.cls-1{fill-rule:evenodd;}</style></defs><title>地名地址</title><path class="cls-1" d="M48.66,94.6a5.51,5.51,0,0,0,1.54-3.17,3.3,3.3,0,0,0-6.6,0,5.16,5.16,0,0,0,1.32,2.9l-.9.29-1.75-.55A2.12,2.12,0,0,0,42.63,93,1.8,1.8,0,1,0,39,93a2.37,2.37,0,0,0,.45,1.24h0L37,99.73l3.72-1.4,3.39,1.4,3.18-1.4L51,99.73,48.66,94.6Zm-1.76-4.71a1.55,1.55,0,1,1-1.6,1.55,1.58,1.58,0,0,1,1.6-1.55Zm-6.08,2.22A.88.88,0,1,1,40,93a.88.88,0,0,1,.88-.88Zm6.39,5.39-3.12,1.35L40.78,97.5l-2.48,1.13L39.73,95l.23,0c.28.38.59.77.87,1.22.35-.56.72-1,1-1.45l2.17.7,1.36-.44c.5.64,1,1.31,1.52,2,.46-.71.93-1.32,1.38-1.89l1.43,3.57-2.5-1.17Z" transform="translate(-37 -88.25)"/></svg>