<?xml version="1.0" standalone="no"?><!DOCTYPE svg PUBLIC "-//W3C//DTD SVG 1.1//EN" "http://www.w3.org/Graphics/SVG/1.1/DTD/svg11.dtd"><svg class="icon" width="48px" height="48.00px" viewBox="0 0 1024 1024" version="1.1" xmlns="http://www.w3.org/2000/svg"><path fill="#1296db" d="M864 0l-768 0C43.008 0 0 43.008 0 96l0 768C0 916.992 43.008 960 96 960l768 0c52.992 0 96-43.008 96-96l0-768C960 43.008 916.992 0 864 0zM896 864c0 17.664-14.336 32-32 32l-768 0C78.336 896 64 881.664 64 864l0-768C64 78.336 78.336 64 96 64l768 0C881.664 64 896 78.336 896 96L896 864zM704 128l-64 0 0 128L512 256 512 128 448 128l0 128L320 256 320 128 256 128l0 128L128 256l0 64 128 0 0 128L128 448l0 64 128 0 0 128L128 640l0 64 128 0 0 128 64 0 0-128 128 0 0 128 64 0 0-128 128 0 0 128 64 0 0-128 128 0 0-64-128 0L704 512l128 0L832 448l-128 0L704 320l128 0L832 256l-128 0L704 128zM320 320l128 0 0 128L320 448 320 320zM320 640 320 512l128 0 0 128L320 640zM640 640 512 640 512 512l128 0L640 640zM640 448 512 448 512 320l128 0L640 448z" /></svg>