<svg id="图层_1" data-name="图层 1" xmlns="http://www.w3.org/2000/svg" viewBox="0 0 14 14"><defs><style>.cls-1{fill-rule:evenodd;}</style></defs><title>其他</title><polygon class="cls-1" points="8 4 8 0 12 4 8 4"/><path d="M158,93v4H146V93h12m1-1H145v6h14V92Z" transform="translate(-145 -87)"/><circle cx="4" cy="8" r="1"/><circle cx="7" cy="8" r="1"/><circle cx="10" cy="8" r="1"/><polygon points="12 5 12 4 11 3 11 5 11 6 12 6 13 6 13 10 12 10 11 10 11 11 11 13 3 13 3 11 3 10 2 10 1 10 1 6 2 6 3 6 3 5 3 1 9 1 8 0 2 0 2 5 0 5 0 11 2 11 2 14 12 14 12 11 14 11 14 5 12 5"/></svg>